<svg id="Layer_1" data-name="Layer 1" xmlns="http://www.w3.org/2000/svg" viewBox="0 0 327.84 174.55"><defs><style>.cls-1{fill:#193258;}.cls-2{fill:none;stroke:#193258;stroke-miterlimit:10;stroke-width:3px;}</style></defs><path class="cls-1" d="M68.88,38.61,68,36.23l1.8-4.88L65,26.07,60.4,29.64h-.1l-.18,0-.06,0c-1.69-.63-5.3-1.88-5.3-1.88l-1.5-6.47H43.43l-1.49,6.47s-3.61,1.25-5.3,1.88l-.06,0-.18,0h-.1l-4.56-3.57-4.82,5.28,1.8,4.88-.9,2.38-3.67.74.09,5,3,.72,1.12,2.47-.67,1.92L29,51.78l1.77-.94s2.71,3.52,2.95,3.45c0,0,0-3.82,0-3.82-.17-.22-.35-.44-.5-.66l0,0L33,49.56a6.16,6.16,0,0,1-.33-.55,7.7,7.7,0,0,1-1-3.65,7.93,7.93,0,0,1,2.72-6,16.09,16.09,0,0,1,7.51-3.78l.13,0,.33-.07A26.57,26.57,0,0,1,48,34.9h.72a26.63,26.63,0,0,1,5.63.57l.33.07.13,0a16.09,16.09,0,0,1,7.51,3.78,7.93,7.93,0,0,1,2.72,6A7.7,7.7,0,0,1,64,49a6.16,6.16,0,0,1-.33.55l-.15.22,0,0-.5.66s0,3.81,0,3.82c.23.07,2.95-3.45,2.95-3.45l1.77.94L69,49.44l-.67-1.92,1.12-2.47,3-.72.09-5Z"/><path class="cls-1" d="M55.08,109.81V37.94a23.15,23.15,0,0,0-5.21-.87v72.74Z"/><path class="cls-1" d="M63.15,109.81V43.25A12.54,12.54,0,0,0,57.94,39v70.8Z"/><path class="cls-1" d="M38.93,109.81V39.05a12.27,12.27,0,0,0-5.2,4.33v66.43Z"/><path class="cls-1" d="M47,109.81V37.07A23.52,23.52,0,0,0,41.8,38v71.85Z"/><path class="cls-1" d="M87.1,66.4v-.61c0-14,10.48-24.15,25-24.15,7.49,0,12.61,1.9,17.51,5.56L123,54.87A16.16,16.16,0,0,0,112,50.8c-7.64,0-13.46,6.17-13.46,14.92v.54c0,9.77,6,15.27,13.92,15.27a14.81,14.81,0,0,0,8-2V71.15h-9.71V62.6h20.27v22a33.63,33.63,0,0,1-19,5.9C97.5,90.48,87.1,81.25,87.1,66.4Z"/><path class="cls-1" d="M149.74,42.32h34.49v8.89H160.75V61.45H181.4v8.88H160.75V80.91h23.78V89.8H149.74Z"/><path class="cls-1" d="M218.54,42.19H229.1l19.19,47.75H236.82l-4-10.31H214.41l-3.9,10.31H199.35Zm10.94,28.75-5.81-15.46-5.89,15.46Z"/><path class="cls-1" d="M263.09,42.32H283.2c6.19,0,11.16,1.56,14.53,4.55,2.9,2.57,4.51,6.3,4.51,11v.27c0,7.19-4.05,11.74-9.94,14.05L303.69,89.8H291l-9.87-15.6h-6.95V89.8H263.09Zm19.27,23.2c5.66,0,8.72-2.85,8.72-7.12v-.07c0-4.75-3.29-7.12-8.95-7.12h-7.95V65.52Z"/><path class="cls-1" d="M30.42,137.71h3.45l6.28,15.61H36.4L35.1,150h-6l-1.27,3.37H24.15ZM34,147.12l-1.9-5.06-1.93,5.06Z"/><path class="cls-1" d="M47.37,140.77H43v-3h12.4v3H51v12.55h-3.6Z"/><path class="cls-1" d="M64.67,140.77h-4.4v-3H72.66v3H68.27v12.55h-3.6Z"/><path class="cls-1" d="M77.31,145.72v-.27a7.92,7.92,0,0,1,15.83,0v.26a7.92,7.92,0,0,1-15.83.05Zm12.08-.07v-.15c0-3.06-1.75-5-4.18-5s-4.17,1.9-4.17,5v.16c0,3.06,1.77,5,4.2,5S89.39,148.71,89.39,145.65Z"/><path class="cls-1" d="M99.51,137.8h6.57a7,7,0,0,1,4.75,1.49,4.61,4.61,0,0,1,1.48,3.59V143a4.71,4.71,0,0,1-3.25,4.59l3.72,5.76h-4.15l-3.22-5.1h-2.28v5.1H99.51Zm6.3,7.59c1.85,0,2.85-.94,2.85-2.33v0c0-1.56-1.08-2.33-2.93-2.33h-2.6v4.68Z"/><path class="cls-1" d="M118.68,137.8H122l6.7,9v-9h3.55v15.52h-3.1l-6.92-9.38v9.38h-3.55Z"/><path class="cls-1" d="M139.25,137.8h11.27v2.91h-7.67v3.35h6.75V147h-6.75v3.46h7.77v2.9H139.25Z"/><path class="cls-1" d="M161.12,147.2l-5.7-9.4h4.1l3.45,6.1,3.48-6.1h4l-5.69,9.36v6.16h-3.63Z"/><path class="cls-1" d="M174,151.24l2.15-2.37a7.13,7.13,0,0,0,4.35,1.75c1.4,0,2.25-.62,2.25-1.53v0c0-.78-.5-1.27-3-2.11-3.1-1.06-5-2.11-5-4.77v0c0-2.71,2.35-4.55,5.72-4.55a8.94,8.94,0,0,1,5.65,1.91l-2,2.44a6.53,6.53,0,0,0-3.73-1.44c-1.25,0-2,.55-2,1.35v0c0,.89.6,1.31,3.32,2.31,3.05,1.06,4.7,2.22,4.7,4.63v.05c0,2.88-2.47,4.65-5.87,4.65A10.07,10.07,0,0,1,174,151.24Z"/><path class="cls-1" d="M206.56,137.71H210l6.27,15.61h-3.74l-1.3-3.37h-6l-1.27,3.37h-3.65Zm3.58,9.41-1.9-5.06-1.93,5.06Z"/><path class="cls-1" d="M223.51,140.77h-4.4v-3h12.4v3h-4.4v12.55h-3.6Z"/><path class="cls-1" d="M246.55,137.8h3.63v12.57h7.07v2.95h-10.7Z"/><path class="cls-1" d="M268.1,137.71h3.45l6.27,15.61h-3.75l-1.3-3.37h-6l-1.27,3.37h-3.65Zm3.57,9.41-1.9-5.06-1.92,5.06Z"/><path class="cls-1" d="M280.67,137.8h3.83L287.45,148l3.19-10.26h3.15L297,148l2.92-10.22h3.75l-5,15.61h-3.32l-3.2-9.86-3.2,9.86h-3.3Z"/><line class="cls-2" x1="24.15" y1="124.47" x2="303.69" y2="124.47"/><path class="cls-1" d="M91.74,108.76c.24,0,.47,0,.68,0a5,5,0,0,0,.58-.11,3.52,3.52,0,0,0,.52-.17,4.37,4.37,0,0,0,.49-.23v-2H92.59a.32.32,0,0,1-.2-.07.24.24,0,0,1-.07-.18v-.7h2.82v3.52a4.48,4.48,0,0,1-.72.44,5.11,5.11,0,0,1-.8.31,6.23,6.23,0,0,1-.92.19,8.5,8.5,0,0,1-1,.06,4.79,4.79,0,0,1-1.84-.35,4,4,0,0,1-1.43-1,4.26,4.26,0,0,1-.94-1.48,5.11,5.11,0,0,1-.34-1.91,5.28,5.28,0,0,1,.33-1.91,4.06,4.06,0,0,1,2.42-2.44,5.25,5.25,0,0,1,2-.34,5.37,5.37,0,0,1,1,.08,4.62,4.62,0,0,1,.87.23,4.23,4.23,0,0,1,.74.36,5.16,5.16,0,0,1,.64.49l-.36.56a.3.3,0,0,1-.28.17.4.4,0,0,1-.22-.07l-.36-.21a2.47,2.47,0,0,0-.49-.25,3.34,3.34,0,0,0-.67-.2,4.09,4.09,0,0,0-.92-.09,3.68,3.68,0,0,0-1.4.26,2.85,2.85,0,0,0-1.07.72,3,3,0,0,0-.68,1.14,4.9,4.9,0,0,0,0,3.06,3.28,3.28,0,0,0,.69,1.16,3.16,3.16,0,0,0,1.07.72A3.51,3.51,0,0,0,91.74,108.76Z"/><path class="cls-1" d="M106.53,109.66h-1a.4.4,0,0,1-.27-.08.41.41,0,0,1-.15-.21l-.86-2.22h-4.13l-.85,2.22a.39.39,0,0,1-.16.2.36.36,0,0,1-.27.09h-1l3.67-9.18h1.27Zm-6-3.41h3.43l-1.44-3.73a6,6,0,0,1-.28-.87,4.84,4.84,0,0,1-.14.49,2.8,2.8,0,0,1-.13.38Z"/><path class="cls-1" d="M113.44,108.76c.25,0,.48,0,.68,0a4.77,4.77,0,0,0,.59-.11,3.52,3.52,0,0,0,.52-.17,5.4,5.4,0,0,0,.49-.23v-2h-1.43a.29.29,0,0,1-.19-.07A.24.24,0,0,1,114,106v-.7h2.82v3.52a4.16,4.16,0,0,1-.73.44,4.75,4.75,0,0,1-.8.31,6.09,6.09,0,0,1-.91.19,8.78,8.78,0,0,1-1.06.06,4.74,4.74,0,0,1-1.83-.35,4,4,0,0,1-1.44-1,4.41,4.41,0,0,1-.94-1.48,5.69,5.69,0,0,1,0-3.82,4.25,4.25,0,0,1,.94-1.49,4.14,4.14,0,0,1,1.48-1,5.25,5.25,0,0,1,2-.34,5.37,5.37,0,0,1,1,.08,4.62,4.62,0,0,1,.87.23,4.23,4.23,0,0,1,.74.36,5.05,5.05,0,0,1,.63.49l-.35.56a.31.31,0,0,1-.28.17.43.43,0,0,1-.23-.07l-.36-.21a2.66,2.66,0,0,0-.48-.25,3.34,3.34,0,0,0-.67-.2,4.15,4.15,0,0,0-.92-.09,3.73,3.73,0,0,0-1.41.26,2.93,2.93,0,0,0-1.07.72,3.23,3.23,0,0,0-.68,1.14,4.46,4.46,0,0,0-.23,1.5,4.69,4.69,0,0,0,.24,1.56,3.46,3.46,0,0,0,.7,1.16,3.11,3.11,0,0,0,1.06.72A3.54,3.54,0,0,0,113.44,108.76Z"/><path class="cls-1" d="M121.57,100.52a.67.67,0,0,1,.18.17l5.32,6.92c0-.11,0-.22,0-.32s0-.21,0-.3v-6.51h1.09v9.18h-.63a.49.49,0,0,1-.25,0,.58.58,0,0,1-.19-.17l-5.32-6.92c0,.11,0,.22,0,.32a2.72,2.72,0,0,1,0,.28v6.54h-1.09v-9.18h.64A.54.54,0,0,1,121.57,100.52Z"/><path class="cls-1" d="M140.83,105.07a5.3,5.3,0,0,1-.33,1.9,4.31,4.31,0,0,1-.92,1.48,4.17,4.17,0,0,1-1.43,1,5.2,5.2,0,0,1-3.7,0,4.07,4.07,0,0,1-1.43-1,4.16,4.16,0,0,1-.92-1.48,5.61,5.61,0,0,1,0-3.79,4.3,4.3,0,0,1,.92-1.49,4.21,4.21,0,0,1,1.43-1,5.2,5.2,0,0,1,3.7,0,4.31,4.31,0,0,1,1.43,1,4.45,4.45,0,0,1,.92,1.49A5.29,5.29,0,0,1,140.83,105.07Zm-1.28,0a4.44,4.44,0,0,0-.23-1.51,3.18,3.18,0,0,0-.65-1.14,2.9,2.9,0,0,0-1-.72,3.72,3.72,0,0,0-2.68,0,2.9,2.9,0,0,0-1,.72,3.06,3.06,0,0,0-.66,1.14,4.7,4.7,0,0,0-.23,1.51,4.76,4.76,0,0,0,.23,1.52,3.06,3.06,0,0,0,.66,1.14,2.88,2.88,0,0,0,1,.71,3.86,3.86,0,0,0,2.68,0,2.88,2.88,0,0,0,1-.71,3.18,3.18,0,0,0,.65-1.14A4.5,4.5,0,0,0,139.55,105.07Z"/><path class="cls-1" d="M145.34,100.52a.67.67,0,0,1,.18.17l5.32,6.92c0-.11,0-.22,0-.32s0-.21,0-.3v-6.51h1.09v9.18h-.63a.43.43,0,0,1-.24,0,.52.52,0,0,1-.2-.17l-5.31-6.92c0,.11,0,.22,0,.32a2.72,2.72,0,0,1,0,.28v6.54h-1.09v-9.18h.64A.54.54,0,0,1,145.34,100.52Z"/><path class="cls-1" d="M155.56,108.88a.64.64,0,0,1,.05-.28.76.76,0,0,1,.15-.23.78.78,0,0,1,.24-.16.81.81,0,0,1,.31-.06.89.89,0,0,1,.34.07.62.62,0,0,1,.25.2.73.73,0,0,1,.15.29,1,1,0,0,1,.06.35,2.18,2.18,0,0,1-.09.6,2.64,2.64,0,0,1-.24.62,3,3,0,0,1-.38.59,3.64,3.64,0,0,1-.51.53l-.19-.18a.23.23,0,0,1-.09-.18.26.26,0,0,1,.09-.18,1.81,1.81,0,0,0,.17-.19c.06-.07.13-.17.2-.27a2.17,2.17,0,0,0,.19-.34,1.25,1.25,0,0,0,.12-.4h-.08a.73.73,0,0,1-.3,0,.81.81,0,0,1-.24-.17.87.87,0,0,1-.15-.25A.78.78,0,0,1,155.56,108.88Z"/><path class="cls-1" d="M166.37,100.48v1H162v3.05h3.57v1H162v3.13h4.41v1h-5.66v-9.18Z"/><path class="cls-1" d="M171.56,109.66h-1.25v-9.18h1.25Z"/><path class="cls-1" d="M180.65,101.91a.39.39,0,0,1-.13.15.25.25,0,0,1-.16,0,.42.42,0,0,1-.25-.11,3.43,3.43,0,0,0-.37-.24,2.91,2.91,0,0,0-.53-.24,2.14,2.14,0,0,0-.76-.11,2.29,2.29,0,0,0-.73.11,1.55,1.55,0,0,0-.54.3,1.23,1.23,0,0,0-.32.46,1.3,1.3,0,0,0-.11.56,1,1,0,0,0,.19.64,1.64,1.64,0,0,0,.5.43,3.78,3.78,0,0,0,.7.31l.81.27c.28.1.55.2.81.32a2.77,2.77,0,0,1,.7.44,1.93,1.93,0,0,1,.5.66,2.21,2.21,0,0,1,.19,1A3.24,3.24,0,0,1,181,108a2.71,2.71,0,0,1-.6.92,2.91,2.91,0,0,1-1,.61,3.56,3.56,0,0,1-1.31.23,3.91,3.91,0,0,1-1.62-.33,3.6,3.6,0,0,1-1.25-.87l.36-.59a.34.34,0,0,1,.12-.12.3.3,0,0,1,.16,0,.49.49,0,0,1,.31.15c.12.09.26.2.43.31a3.7,3.7,0,0,0,.63.32,2.43,2.43,0,0,0,.9.14,2.39,2.39,0,0,0,.79-.12,1.63,1.63,0,0,0,.59-.34,1.54,1.54,0,0,0,.37-.53,1.83,1.83,0,0,0,.13-.68,1.22,1.22,0,0,0-.19-.69,1.78,1.78,0,0,0-.5-.44,3.78,3.78,0,0,0-.7-.31l-.81-.25a7.14,7.14,0,0,1-.81-.31,2.33,2.33,0,0,1-.7-.45,2.12,2.12,0,0,1-.5-.69,2.51,2.51,0,0,1-.19-1,2.54,2.54,0,0,1,.19-.94,2.59,2.59,0,0,1,.55-.81,2.76,2.76,0,0,1,.89-.56,3.27,3.27,0,0,1,1.21-.21,4,4,0,0,1,1.41.24,3.37,3.37,0,0,1,1.11.7Z"/><path class="cls-1" d="M190.32,100.48v1h-4.41v3.05h3.57v1h-3.57v3.13h4.41v1h-5.66v-9.18Z"/><path class="cls-1" d="M195.27,108.62h4v1H194v-9.18h1.24Z"/><path class="cls-1" d="M208.2,100.48v1h-4.41v3.05h3.58v1h-3.58v3.13h4.41v1h-5.66v-9.18Z"/><path class="cls-1" d="M211.41,108.88a.64.64,0,0,1,.05-.28.76.76,0,0,1,.15-.23.78.78,0,0,1,.24-.16.81.81,0,0,1,.31-.06.89.89,0,0,1,.34.07.62.62,0,0,1,.25.2.73.73,0,0,1,.15.29,1,1,0,0,1,.06.35,2.18,2.18,0,0,1-.09.6,2.64,2.64,0,0,1-.24.62,3,3,0,0,1-.38.59,3.64,3.64,0,0,1-.51.53l-.19-.18a.23.23,0,0,1-.09-.18.26.26,0,0,1,.09-.18,1.81,1.81,0,0,0,.17-.19c.06-.07.13-.17.2-.27a2.17,2.17,0,0,0,.19-.34,1.25,1.25,0,0,0,.12-.4h-.08a.73.73,0,0,1-.3,0,.81.81,0,0,1-.24-.17.87.87,0,0,1-.15-.25A.78.78,0,0,1,211.41,108.88Z"/><path class="cls-1" d="M228.52,109.66h-1a.4.4,0,0,1-.27-.08.47.47,0,0,1-.15-.21l-.86-2.22h-4.12l-.86,2.22a.43.43,0,0,1-.15.2.38.38,0,0,1-.27.09h-1l3.67-9.18h1.26Zm-6-3.41h3.43l-1.45-3.73a7.71,7.71,0,0,1-.27-.87l-.14.49-.13.38Z"/><path class="cls-1" d="M232.49,100.52a.67.67,0,0,1,.18.17l5.32,6.92,0-.32v-6.81h1.09v9.18h-.63a.49.49,0,0,1-.25,0,.58.58,0,0,1-.19-.17l-5.32-6.92c0,.11,0,.22,0,.32a2.72,2.72,0,0,1,0,.28v6.54H231.6v-9.18h.64A.57.57,0,0,1,232.49,100.52Z"/><path class="cls-1" d="M251.18,105.07a5.12,5.12,0,0,1-.33,1.88,4.09,4.09,0,0,1-.92,1.45,4.21,4.21,0,0,1-1.43.93,4.8,4.8,0,0,1-1.85.33h-3.43v-9.18h3.43a5,5,0,0,1,1.85.33,4,4,0,0,1,2.35,2.39A5.1,5.1,0,0,1,251.18,105.07Zm-1.28,0a4.74,4.74,0,0,0-.23-1.51,3.22,3.22,0,0,0-.65-1.13,2.94,2.94,0,0,0-1-.7,3.59,3.59,0,0,0-1.34-.24h-2.18v7.17h2.18a3.4,3.4,0,0,0,1.34-.25,2.82,2.82,0,0,0,1-.7,3.09,3.09,0,0,0,.65-1.12A4.76,4.76,0,0,0,249.9,105.07Z"/><path class="cls-1" d="M260.56,105.83v3.83h-1.24v-9.18h2.6a6,6,0,0,1,1.5.17,2.94,2.94,0,0,1,1.05.51,2,2,0,0,1,.61.81,2.85,2.85,0,0,1,.05,2,2.32,2.32,0,0,1-.45.76,2.54,2.54,0,0,1-.71.58,3.47,3.47,0,0,1-1,.36,1.37,1.37,0,0,1,.41.39l2.68,3.64H265a.52.52,0,0,1-.5-.26l-2.39-3.28a.62.62,0,0,0-.24-.22.75.75,0,0,0-.38-.07Zm0-.9h1.3a3.36,3.36,0,0,0,.95-.13,2,2,0,0,0,.7-.38,1.69,1.69,0,0,0,.42-.57,2,2,0,0,0,.14-.74,1.45,1.45,0,0,0-.54-1.23,2.6,2.6,0,0,0-1.61-.42h-1.36Z"/><path class="cls-1" d="M270.84,109.66H269.6v-9.18h1.24Z"/><path class="cls-1" d="M279.33,108.76c.24,0,.47,0,.68,0a5,5,0,0,0,.58-.11,3.52,3.52,0,0,0,.52-.17,4.37,4.37,0,0,0,.49-.23v-2h-1.42a.32.32,0,0,1-.2-.07.24.24,0,0,1-.07-.18v-.7h2.82v3.52a4.48,4.48,0,0,1-.72.44,5.11,5.11,0,0,1-.8.31,6.23,6.23,0,0,1-.92.19,8.5,8.5,0,0,1-1.05.06,4.79,4.79,0,0,1-1.84-.35,4,4,0,0,1-1.43-1A4.26,4.26,0,0,1,275,107a5.11,5.11,0,0,1-.34-1.91,5.28,5.28,0,0,1,.33-1.91,4.06,4.06,0,0,1,2.42-2.44,5.25,5.25,0,0,1,1.95-.34,5.37,5.37,0,0,1,1,.08,4.62,4.62,0,0,1,.87.23,4.23,4.23,0,0,1,.74.36,5.16,5.16,0,0,1,.64.49l-.36.56a.3.3,0,0,1-.28.17.4.4,0,0,1-.22-.07l-.36-.21a2.47,2.47,0,0,0-.49-.25,3.34,3.34,0,0,0-.67-.2,4.09,4.09,0,0,0-.92-.09,3.68,3.68,0,0,0-1.4.26,2.85,2.85,0,0,0-1.07.72,3,3,0,0,0-.68,1.14,4.9,4.9,0,0,0,0,3.06,3.28,3.28,0,0,0,.69,1.16,3.16,3.16,0,0,0,1.07.72A3.51,3.51,0,0,0,279.33,108.76Z"/><path class="cls-1" d="M286.56,109.66v-9.18h2.93a5.23,5.23,0,0,1,1.46.17,2.78,2.78,0,0,1,1,.47,1.93,1.93,0,0,1,.58.75,2.49,2.49,0,0,1,.19,1,2.06,2.06,0,0,1-.11.65,1.75,1.75,0,0,1-.32.58,2.24,2.24,0,0,1-.53.48,2.8,2.8,0,0,1-.76.35,2.85,2.85,0,0,1,1.52.72,1.92,1.92,0,0,1,.51,1.39,2.45,2.45,0,0,1-.22,1.06,2.29,2.29,0,0,1-.62.83,3.09,3.09,0,0,1-1,.54,4.74,4.74,0,0,1-1.37.18Zm1.25-5.07h1.64a3.11,3.11,0,0,0,.91-.11,1.92,1.92,0,0,0,.64-.32,1.31,1.31,0,0,0,.37-.5,1.66,1.66,0,0,0,.12-.64,1.4,1.4,0,0,0-.48-1.18,2.5,2.5,0,0,0-1.52-.38h-1.68Zm0,.89v3.2h2a3.11,3.11,0,0,0,.92-.12,1.75,1.75,0,0,0,.63-.35,1.35,1.35,0,0,0,.36-.52,2.09,2.09,0,0,0,.11-.67,1.4,1.4,0,0,0-.5-1.13,2.4,2.4,0,0,0-1.52-.41Z"/><path class="cls-1" d="M300.32,106v3.65h-1.24V106l-3.36-5.53h1.09a.4.4,0,0,1,.26.08,1.2,1.2,0,0,1,.17.21l2.1,3.57a4.1,4.1,0,0,1,.21.42c.06.13.11.26.16.39l.15-.4a3.32,3.32,0,0,1,.22-.41l2.09-3.57a.74.74,0,0,1,.16-.2.37.37,0,0,1,.26-.09h1.1Z"/></svg>